HIERARCHY
ROOT newVegas:Hips
{
	OFFSET 0.000000 96.479958 0.000000
	CHANNELS 6 Xposition Yposition Zposition Xrotation Yrotation Zrotation
	JOINT newVegas:Pelvis
	{
		OFFSET 0.000000 0.000000 0.000000
		CHANNELS 3 Xrotation Yrotation Zrotation
		JOINT newVegas:LeftUpLeg
		{
			OFFSET 18.735201 -5.666702 -4.541200
			CHANNELS 3 Xrotation Yrotation Zrotation
			JOINT newVegas:LeftLeg
			{
				OFFSET -0.021200 -31.938179 0.493100
				CHANNELS 3 Xrotation Yrotation Zrotation
				JOINT newVegas:LeftFoot
				{
					OFFSET 0.021200 -31.938179 -4.336299
					CHANNELS 3 Xrotation Yrotation Zrotation
					JOINT newVegas:LeftToeBase
					{
						OFFSET 0.943001 -26.722000 15.023500
						CHANNELS 3 Xrotation Yrotation Zrotation
						End Site
						{
							OFFSET 0.000000 30.670183 0.000000
						}
					}
				}
				JOINT newVegas:Left_PantLeg
				{
					OFFSET 0.663870 -9.044666 -1.108900
					CHANNELS 3 Xrotation Yrotation Zrotation
					End Site
					{
						OFFSET 1.415995 20.635357 0.000000
					}
				}
			}
		}
		JOINT newVegas:RightUpLeg
		{
			OFFSET -18.735201 -5.666702 -4.541200
			CHANNELS 3 Xrotation Yrotation Zrotation
			JOINT newVegas:RightLeg
			{
				OFFSET 0.018946 -31.938133 0.493100
				CHANNELS 3 Xrotation Yrotation Zrotation
				JOINT newVegas:RightFoot
				{
					OFFSET -0.018946 -31.938126 -4.336299
					CHANNELS 3 Xrotation Yrotation Zrotation
					JOINT newVegas:RightToeBase
					{
						OFFSET -0.943001 -26.722004 15.023500
						CHANNELS 3 Xrotation Yrotation Zrotation
						End Site
						{
							OFFSET 0.000000 30.670187 0.000000
						}
					}
				}
				JOINT newVegas:Right_PantLeg
				{
					OFFSET -0.661674 -9.044716 -1.108900
					CHANNELS 3 Xrotation Yrotation Zrotation
					End Site
					{
						OFFSET -1.415958 20.635269 0.000000
					}
				}
			}
		}
	}
	JOINT newVegas:Spine
	{
		OFFSET 0.000000 10.199997 -0.299500
		CHANNELS 3 Xrotation Yrotation Zrotation
		JOINT newVegas:Spine1
		{
			OFFSET 0.000000 11.900002 -1.516600
			CHANNELS 3 Xrotation Yrotation Zrotation
			JOINT newVegas:Spine2
			{
				OFFSET 0.000000 13.600006 -2.842500
				CHANNELS 3 Xrotation Yrotation Zrotation
				JOINT newVegas:Neck
				{
					OFFSET 0.000000 9.624100 -2.890100
					CHANNELS 3 Xrotation Yrotation Zrotation
					JOINT newVegas:Head
					{
						OFFSET 0.000000 14.068802 -1.351900
						CHANNELS 3 Xrotation Yrotation Zrotation
						JOINT newVegas:Hair_Back
						{
							OFFSET 0.000000 3.231903 -17.524799
							CHANNELS 3 Xrotation Yrotation Zrotation
							End Site
							{
								OFFSET 0.000000 19.849884 0.000000
							}
						}
						JOINT newVegas:Hair_Front
						{
							OFFSET 0.000000 31.260406 4.573800
							CHANNELS 3 Xrotation Yrotation Zrotation
							JOINT newVegas:Hair_Front1
							{
								OFFSET 0.000000 2.284103 11.993300
								CHANNELS 3 Xrotation Yrotation Zrotation
								JOINT newVegas:Hair_Front2
								{
									OFFSET 0.000000 2.284103 11.993300
									CHANNELS 3 Xrotation Yrotation Zrotation
									End Site
									{
										OFFSET 0.000000 12.208862 0.000000
									}
								}
							}
						}
						JOINT newVegas:Jowel
						{
							OFFSET 0.000000 -7.458206 6.864100
							CHANNELS 3 Xrotation Yrotation Zrotation
							End Site
							{
								OFFSET 0.000000 19.849884 0.000000
							}
						}
					}
				}
				JOINT newVegas:LeftShoulder
				{
					OFFSET 15.263000 10.923401 -0.547700
					CHANNELS 3 Xrotation Yrotation Zrotation
					JOINT newVegas:LeftArm
					{
						OFFSET 25.438599 -2.830597 -13.032500
						CHANNELS 3 Xrotation Yrotation Zrotation
						JOINT newVegas:LeftForeArm
						{
							OFFSET 29.960503 0.000000 0.000000
							CHANNELS 3 Xrotation Yrotation Zrotation
							JOINT newVegas:LeftHand
							{
								OFFSET 27.849251 0.000000 0.000000
								CHANNELS 3 Xrotation Yrotation Zrotation
								JOINT newVegas:LeftHandThumb1
								{
									OFFSET 4.487587 -3.305161 6.305391
									CHANNELS 3 Xrotation Yrotation Zrotation
									JOINT newVegas:LeftHandThumb2
									{
										OFFSET 5.480453 -3.164139 3.164143
										CHANNELS 3 Xrotation Yrotation Zrotation
										JOINT newVegas:LeftHandThumb3
										{
											OFFSET 5.159721 -2.978973 2.978967
											CHANNELS 3 Xrotation Yrotation Zrotation
											End Site
											{
												OFFSET 2.494507 5.926697 1.738678
											}
										}
									}
								}
								JOINT newVegas:LeftHandIndex1
								{
									OFFSET 18.578728 -0.527832 5.208049
									CHANNELS 3 Xrotation Yrotation Zrotation
									JOINT newVegas:LeftHandIndex2
									{
										OFFSET 3.192009 0.000000 0.000000
										CHANNELS 3 Xrotation Yrotation Zrotation
										JOINT newVegas:LeftHandIndex3
										{
											OFFSET 3.835129 0.000000 0.000000
											CHANNELS 3 Xrotation Yrotation Zrotation
											End Site
											{
												OFFSET -0.034599 3.816971 0.371180
											}
										}
									}
								}
								JOINT newVegas:LeftHandMiddle1
								{
									OFFSET 18.476105 0.000000 0.000000
									CHANNELS 3 Xrotation Yrotation Zrotation
									JOINT newVegas:LeftHandMiddle2
									{
										OFFSET 3.324875 0.000000 0.000000
										CHANNELS 3 Xrotation Yrotation Zrotation
										JOINT newVegas:LeftHandMiddle3
										{
											OFFSET 4.596550 0.000000 0.000000
											CHANNELS 3 Xrotation Yrotation Zrotation
											End Site
											{
												OFFSET 0.057701 4.578827 0.399218
											}
										}
									}
								}
								JOINT newVegas:LeftHandRing1
								{
									OFFSET 17.732719 0.121887 -4.201567
									CHANNELS 3 Xrotation Yrotation Zrotation
									JOINT newVegas:LeftHandRing2
									{
										OFFSET 2.733170 0.000000 0.000000
										CHANNELS 3 Xrotation Yrotation Zrotation
										JOINT newVegas:LeftHandRing3
										{
											OFFSET 3.178268 0.000000 0.000000
											CHANNELS 3 Xrotation Yrotation Zrotation
											End Site
											{
												OFFSET 0.119102 3.170624 0.185394
											}
										}
									}
								}
								JOINT newVegas:LeftHandPinky1
								{
									OFFSET 15.989624 -0.606689 -7.535461
									CHANNELS 3 Xrotation Yrotation Zrotation
									JOINT newVegas:LeftHandPinky2
									{
										OFFSET 2.538986 0.000000 0.000000
										CHANNELS 3 Xrotation Yrotation Zrotation
										JOINT newVegas:LeftHandPinky3
										{
											OFFSET 2.593102 0.000000 0.000000
											CHANNELS 3 Xrotation Yrotation Zrotation
											End Site
											{
												OFFSET -0.150902 2.584198 0.152708
											}
										}
									}
								}
							}
							JOINT newVegas:Left_Sleeve
							{
								OFFSET 0.267448 -0.649796 0.577675
								CHANNELS 3 Xrotation Yrotation Zrotation
								End Site
								{
									OFFSET 0.000000 15.991241 0.000000
								}
							}
							JOINT newVegas:Left_CapeC
							{
								OFFSET 15.715958 -8.608795 -6.935905
								CHANNELS 3 Xrotation Yrotation Zrotation
								JOINT newVegas:Left_CapeC1
								{
									OFFSET 0.000000 -8.688499 0.000000
									CHANNELS 3 Xrotation Yrotation Zrotation
									End Site
									{
										OFFSET 0.000000 8.688499 0.000000
									}
								}
							}
						}
						JOINT newVegas:Left_CapeB
						{
							OFFSET 26.118385 -8.608795 -7.079235
							CHANNELS 3 Xrotation Yrotation Zrotation
							JOINT newVegas:Left_CapeB1
							{
								OFFSET 0.000000 -8.688499 0.000000
								CHANNELS 3 Xrotation Yrotation Zrotation
								End Site
								{
									OFFSET 0.000000 8.688499 0.000000
								}
							}
						}
						JOINT newVegas:Left_CapeA
						{
							OFFSET 5.115639 -8.608795 -10.395809
							CHANNELS 3 Xrotation Yrotation Zrotation
							JOINT newVegas:Left_CapeA1
							{
								OFFSET 0.000000 -8.688499 0.000000
								CHANNELS 3 Xrotation Yrotation Zrotation
								End Site
								{
									OFFSET 0.000000 8.688499 0.000000
								}
							}
						}
					}
				}
				JOINT newVegas:RightShoulder
				{
					OFFSET -15.263000 10.923401 -0.547700
					CHANNELS 3 Xrotation Yrotation Zrotation
					JOINT newVegas:RightArm
					{
						OFFSET -25.438599 -2.830597 -13.032500
						CHANNELS 3 Xrotation Yrotation Zrotation
						JOINT newVegas:RightForeArm
						{
							OFFSET -29.960503 0.000000 0.000000
							CHANNELS 3 Xrotation Yrotation Zrotation
							JOINT newVegas:RightHand
							{
								OFFSET -27.849251 0.000000 0.000000
								CHANNELS 3 Xrotation Yrotation Zrotation
								JOINT newVegas:RightHandThumb1
								{
									OFFSET -4.487587 -3.305161 6.305391
									CHANNELS 3 Xrotation Yrotation Zrotation
									JOINT newVegas:RightHandThumb2
									{
										OFFSET -5.480453 -3.164139 3.164143
										CHANNELS 3 Xrotation Yrotation Zrotation
										JOINT newVegas:RightHandThumb3
										{
											OFFSET -5.159721 -2.978973 2.978967
											CHANNELS 3 Xrotation Yrotation Zrotation
											End Site
											{
												OFFSET -2.494507 5.926697 1.738678
											}
										}
									}
								}
								JOINT newVegas:RightHandIndex1
								{
									OFFSET -18.578728 -0.527832 5.208049
									CHANNELS 3 Xrotation Yrotation Zrotation
									JOINT newVegas:RightHandIndex2
									{
										OFFSET -3.192009 0.000000 0.000000
										CHANNELS 3 Xrotation Yrotation Zrotation
										JOINT newVegas:RightHandIndex3
										{
											OFFSET -3.835129 0.000000 0.000000
											CHANNELS 3 Xrotation Yrotation Zrotation
											End Site
											{
												OFFSET 0.034599 3.816971 0.371180
											}
										}
									}
								}
								JOINT newVegas:RightHandMiddle1
								{
									OFFSET -18.476105 0.000000 0.000000
									CHANNELS 3 Xrotation Yrotation Zrotation
									JOINT newVegas:RightHandMiddle2
									{
										OFFSET -3.324875 0.000000 0.000000
										CHANNELS 3 Xrotation Yrotation Zrotation
										JOINT newVegas:RightHandMiddle3
										{
											OFFSET -4.596550 0.000000 0.000000
											CHANNELS 3 Xrotation Yrotation Zrotation
											End Site
											{
												OFFSET -0.057701 4.578827 0.399218
											}
										}
									}
								}
								JOINT newVegas:RightHandRing1
								{
									OFFSET -17.732719 0.121887 -4.201567
									CHANNELS 3 Xrotation Yrotation Zrotation
									JOINT newVegas:RightHandRing2
									{
										OFFSET -2.733170 0.000000 0.000000
										CHANNELS 3 Xrotation Yrotation Zrotation
										JOINT newVegas:RightHandRing3
										{
											OFFSET -3.178268 0.000000 0.000000
											CHANNELS 3 Xrotation Yrotation Zrotation
											End Site
											{
												OFFSET -0.119102 3.170624 0.185394
											}
										}
									}
								}
								JOINT newVegas:RightHandPinky1
								{
									OFFSET -15.989624 -0.606689 -7.535461
									CHANNELS 3 Xrotation Yrotation Zrotation
									JOINT newVegas:RightHandPinky2
									{
										OFFSET -2.538986 0.000000 0.000000
										CHANNELS 3 Xrotation Yrotation Zrotation
										JOINT newVegas:RightHandPinky3
										{
											OFFSET -2.593102 0.000000 0.000000
											CHANNELS 3 Xrotation Yrotation Zrotation
											End Site
											{
												OFFSET 0.150902 2.584198 0.152708
											}
										}
									}
								}
							}
							JOINT newVegas:Right_CapeC
							{
								OFFSET -15.715958 -8.608795 -6.935905
								CHANNELS 3 Xrotation Yrotation Zrotation
								JOINT newVegas:Right_CapeC1
								{
									OFFSET 0.000000 -8.688499 0.000000
									CHANNELS 3 Xrotation Yrotation Zrotation
									End Site
									{
										OFFSET 0.000000 8.688499 0.000000
									}
								}
							}
							JOINT newVegas:Right_Sleeve
							{
								OFFSET -0.267448 -0.649994 0.577675
								CHANNELS 3 Xrotation Yrotation Zrotation
								End Site
								{
									OFFSET 0.000000 15.991302 0.000000
								}
							}
						}
						JOINT newVegas:Right_CapeA
						{
							OFFSET -5.115540 -8.608795 -10.395824
							CHANNELS 3 Xrotation Yrotation Zrotation
							JOINT newVegas:Right_CapeA1
							{
								OFFSET 0.000000 -8.688499 0.000000
								CHANNELS 3 Xrotation Yrotation Zrotation
								End Site
								{
									OFFSET 0.000000 8.688499 0.000000
								}
							}
						}
						JOINT newVegas:Right_CapeB
						{
							OFFSET -26.118187 -8.608795 -7.079266
							CHANNELS 3 Xrotation Yrotation Zrotation
							JOINT newVegas:Right_CapeB1
							{
								OFFSET 0.000000 -8.688499 0.000000
								CHANNELS 3 Xrotation Yrotation Zrotation
								End Site
								{
									OFFSET 0.000000 8.688499 0.000000
								}
							}
						}
					}
				}
				JOINT newVegas:Left_Collar
				{
					OFFSET 18.625099 8.655502 8.828100
					CHANNELS 3 Xrotation Yrotation Zrotation
					JOINT newVegas:Left_Collar1
					{
						OFFSET 14.783401 10.540405 -1.259500
						CHANNELS 3 Xrotation Yrotation Zrotation
						End Site
						{
							OFFSET 0.000000 18.199875 0.000000
						}
					}
				}
				JOINT newVegas:Collar_Back
				{
					OFFSET 0.000000 15.630707 -20.132601
					CHANNELS 3 Xrotation Yrotation Zrotation
					End Site
					{
						OFFSET 0.000000 22.523010 0.000000
					}
				}
				JOINT newVegas:Left_Peck
				{
					OFFSET 17.239599 -5.132599 25.482599
					CHANNELS 3 Xrotation Yrotation Zrotation
					End Site
					{
						OFFSET 0.000000 22.523010 0.000000
					}
				}
				JOINT newVegas:Right_Peck
				{
					OFFSET -17.239599 -5.132202 25.482599
					CHANNELS 3 Xrotation Yrotation Zrotation
					End Site
					{
						OFFSET 0.000000 22.523010 0.000000
					}
				}
				JOINT newVegas:Right_Collar
				{
					OFFSET -18.625099 8.655792 8.828100
					CHANNELS 3 Xrotation Yrotation Zrotation
					JOINT newVegas:Right_Collar1
					{
						OFFSET -14.783401 10.539993 -1.259500
						CHANNELS 3 Xrotation Yrotation Zrotation
						End Site
						{
							OFFSET 0.000000 18.199631 0.000000
						}
					}
				}
			}
		}
		JOINT newVegas:Belly
		{
			OFFSET 0.000000 -6.540398 9.014299
			CHANNELS 3 Xrotation Yrotation Zrotation
			End Site
			{
				OFFSET 0.000000 11.566666 0.000000
			}
		}
	}
	JOINT newVegas:ElvisFacialAnim_Joint
	{
		OFFSET 1.000000 -95.330101 -8.825800
		CHANNELS 3 Xrotation Yrotation Zrotation
		End Site
		{
			OFFSET 0.000000 35.315800 0.000000
		}
	}
}
MOTION
Frames: 4
Frame Time: 0.033333
2.618763 79.083412 4.867836 23.801799 23.701149 -4.908331 -0.000002 -0.000001 -0.000000 -94.739047 -3.311112 -7.572733 75.420533 -3.567105 1.437900 32.940343 -2.789803 -12.504020 -0.000001 -0.000000 -0.000001 -0.000000 -0.000000 0.000000 -74.147181 -18.827256 -12.519486 80.116425 -16.089808 4.741372 -26.937919 4.629096 -14.662960 0.000000 0.000001 -0.000000 -0.000002 0.000001 -0.000000 17.816118 8.843045 3.223468 6.377061 1.557685 -0.111416 6.404045 1.388110 -0.042127 -1.694056 -4.000069 -0.286379 -1.694072 -4.000080 -0.286377 -0.000003 -0.000001 0.000001 -1.694068 -4.000097 -0.286372 -1.694083 -4.000062 -0.286384 0.000004 -0.000000 0.000000 -0.000003 -0.000001 0.000001 6.052194 18.668130 6.062558 62.885634 -35.997392 -25.824088 51.378981 -34.178991 41.045544 11.375158 -37.782445 32.639992 -9.331554 3.471383 -7.771929 -3.526423 5.992588 -11.731728 0.000001 0.000002 0.000001 2.950636 -12.213420 7.303427 -0.001891 -0.013095 -14.886840 -0.000001 0.000000 -0.000002 -0.428353 -3.917214 -6.247933 -0.001111 -0.009780 -15.259824 -0.000001 -0.000001 -0.000001 3.582745 12.303603 -16.370777 -0.016411 -0.033071 -52.623520 0.000000 0.000003 0.000000 0.000694 20.812478 -16.406954 -0.017060 -0.032016 -51.783848 0.000001 -0.000003 0.000000 0.000003 0.000001 -0.000002 0.000003 0.000001 -0.000002 0.000003 0.000002 -0.000002 -0.000001 0.000001 0.000001 -0.000000 0.000001 0.000000 -0.000001 0.000001 0.000001 -0.000000 0.000001 0.000001 0.910014 7.217212 -0.166611 -44.508579 53.668628 23.598707 -3.060891 6.912028 5.352993 -0.001026 1.531042 -35.309155 -4.453592 -7.293467 20.381126 0.000567 -8.684435 0.000702 0.000003 0.000000 -0.000000 -0.000522 -0.006689 -8.932487 -0.000524 0.007235 6.265800 -0.000000 0.000000 -0.000001 -0.000042 0.002642 3.005843 -0.000327 0.004842 6.344403 -0.000003 -0.000002 -0.000000 2.546349 -5.987554 23.063911 -0.002730 0.015397 21.773011 -0.000001 0.000001 0.000003 8.673207 -16.457459 33.264534 -0.008762 0.026315 37.071535 0.000000 -0.000004 -0.000000 -0.000002 0.000001 -0.000004 -0.000002 0.000001 -0.000002 -0.000002 0.000001 -0.000003 -0.000000 0.000003 -0.000002 -0.000001 0.000003 -0.000002 -0.000000 0.000003 -0.000002 -0.000000 0.000003 -0.000000 -0.000002 -0.000001 0.000001 -0.000002 -0.000001 0.000001 -0.000002 -0.000001 0.000001 -0.000002 -0.000001 0.000001 -0.000002 -0.000001 0.000001 -0.000002 -0.000001 0.000001 -0.000002 -0.000001 0.000001 -0.000003 -0.000001 0.000002 -0.000002 -0.000001 -0.000000 
2.878893 78.475136 -4.539494 22.996181 23.686258 -4.639979 -0.000000 -0.000000 -0.000000 -92.713452 -5.441424 -6.220821 86.641271 2.107000 2.024898 32.246713 -1.809117 -7.789102 -0.000001 0.000000 -0.000001 -0.000000 0.000000 0.000001 -82.198704 -16.099261 -17.514212 77.506944 -11.088627 6.429176 -17.188103 4.170870 -17.946551 0.000000 0.000001 0.000000 0.000002 -0.000000 -0.000000 18.181291 6.595375 3.087268 6.280904 1.247372 -0.009346 6.304586 1.054308 0.051450 -1.602877 -3.755545 -0.029641 -1.602901 -3.755549 -0.029641 0.000001 -0.000002 0.000000 -1.602843 -3.755565 -0.029631 -1.602878 -3.755537 -0.029647 0.000001 0.000001 -0.000001 0.000001 -0.000002 0.000001 6.121813 19.071922 5.862158 62.413019 -37.869663 -24.445616 51.733017 -33.715310 41.385161 11.066236 -37.511273 32.116075 -9.331550 3.471385 -7.771931 -3.526427 5.992586 -11.731736 -0.000000 -0.000001 -0.000006 2.950635 -12.213422 7.303422 -0.001887 -0.013093 -14.886838 0.000001 0.000001 -0.000000 -0.428355 -3.917213 -6.247934 -0.001117 -0.009781 -15.259826 0.000001 -0.000001 -0.000001 3.582742 12.303602 -16.370773 -0.016409 -0.033074 -52.623517 0.000001 0.000005 -0.000000 0.000697 20.812479 -16.406958 -0.017056 -0.032015 -51.783848 -0.000000 0.000000 -0.000000 0.000001 0.000001 -0.000002 0.000001 0.000001 -0.000002 0.000000 0.000001 -0.000002 -0.000002 -0.000001 -0.000000 -0.000001 -0.000002 -0.000001 -0.000002 -0.000001 -0.000000 -0.000001 -0.000002 -0.000000 0.873603 7.245620 1.023318 -47.525774 54.023091 26.024815 -2.040975 9.579993 4.912709 0.130000 1.943796 -35.958228 -4.453592 -7.293466 20.381119 0.000571 -8.684432 0.000691 0.000002 -0.000003 0.000001 -0.000517 -0.006689 -8.932488 -0.000524 0.007235 6.265800 0.000003 -0.000000 0.000000 -0.000041 0.002643 3.005844 -0.000327 0.004841 6.344399 0.000001 0.000000 0.000001 2.546351 -5.987553 23.063910 -0.002732 0.015395 21.773004 -0.000001 -0.000001 0.000004 8.673207 -16.457452 33.264534 -0.008761 0.026315 37.071535 0.000002 0.000001 0.000002 0.000000 0.000001 0.000001 0.000000 0.000001 0.000003 0.000000 0.000001 0.000002 0.000002 0.000000 0.000002 0.000002 0.000000 0.000001 0.000002 0.000000 0.000002 0.000002 0.000000 0.000002 0.000000 0.000001 0.000001 0.000000 0.000001 0.000001 0.000000 0.000001 0.000001 0.000000 0.000001 0.000001 0.000000 0.000001 0.000001 0.000000 0.000001 0.000001 0.000000 0.000001 0.000001 -0.000000 -0.000000 -0.000000 -0.000000 -0.000000 -0.000000 
3.240202 78.413902 -13.874641 21.568607 24.472708 -3.761564 0.000001 -0.000001 0.000001 -86.504257 -7.663149 -6.486815 92.073627 4.348833 2.640293 30.391039 -1.189775 -5.184380 0.000000 0.000002 -0.000000 0.000002 0.000003 0.000001 -86.098824 -14.006215 -20.893702 70.506048 -10.385442 7.687223 -7.062108 3.135425 -20.411139 -0.000000 -0.000000 0.000001 0.000000 0.000001 -0.000000 18.230536 3.986736 2.780436 6.137962 0.730625 -0.045469 6.152082 0.533125 0.002238 -1.123192 -3.617606 0.255374 -1.123172 -3.617596 0.255371 0.000001 -0.000000 -0.000000 -1.123117 -3.617620 0.255382 -1.123278 -3.617589 0.255360 0.000002 -0.000001 -0.000000 0.000001 -0.000000 -0.000000 6.098489 18.871994 5.927327 62.732275 -39.642029 -23.210704 52.447383 -33.002275 42.322051 10.190964 -36.457887 30.678061 -9.331552 3.471387 -7.771930 -3.526431 5.992592 -11.731733 -0.000001 0.000001 -0.000008 2.950641 -12.213422 7.303423 -0.001890 -0.013097 -14.886845 -0.000001 -0.000001 -0.000001 -0.428351 -3.917211 -6.247932 -0.001114 -0.009782 -15.259826 0.000001 -0.000003 -0.000002 3.582745 12.303602 -16.370775 -0.016407 -0.033075 -52.623520 -0.000000 -0.000001 -0.000000 0.000697 20.812478 -16.406960 -0.017058 -0.032018 -51.783851 0.000001 -0.000002 0.000000 0.000001 0.000001 -0.000002 0.000001 0.000001 -0.000002 -0.000000 0.000000 -0.000002 -0.000000 0.000000 0.000002 -0.000000 0.000000 -0.000000 -0.000000 0.000000 0.000002 0.000000 0.000001 0.000002 0.809790 6.831107 2.062684 -48.832031 52.497333 28.881424 0.275768 12.914480 4.061974 0.252563 2.316229 -36.075376 -4.453596 -7.293465 20.381117 0.000567 -8.684433 0.000691 -0.000000 -0.000003 -0.000003 -0.000520 -0.006690 -8.932489 -0.000524 0.007235 6.265801 -0.000002 0.000000 0.000000 -0.000044 0.002643 3.005845 -0.000326 0.004842 6.344402 -0.000002 0.000001 0.000002 2.546346 -5.987553 23.063910 -0.002734 0.015393 21.773006 -0.000001 0.000004 -0.000000 8.673205 -16.457459 33.264534 -0.008760 0.026314 37.071535 0.000001 -0.000000 0.000002 0.000001 0.000000 -0.000003 0.000000 0.000000 0.000001 0.000001 0.000000 -0.000000 -0.000002 0.000001 0.000001 -0.000002 0.000001 -0.000001 -0.000002 0.000001 0.000001 -0.000002 0.000001 0.000001 0.000000 0.000003 0.000001 0.000000 0.000003 0.000001 0.000000 0.000003 0.000001 0.000000 0.000003 0.000001 0.000000 0.000003 0.000001 0.000000 0.000003 0.000001 0.000000 0.000003 0.000001 -0.000000 0.000000 -0.000000 0.000001 -0.000001 0.000001 
3.698351 78.799545 -23.020170 20.075777 25.826866 -2.236596 -0.000001 0.000000 -0.000000 -78.229046 -7.977850 -7.863482 91.207758 2.712078 3.517080 28.074311 -0.935325 -5.014593 -0.000000 -0.000001 0.000000 0.000003 -0.000001 0.000001 -87.398363 -10.982808 -23.856237 59.195576 -9.985935 7.849263 7.184771 1.947962 -20.170184 0.000000 -0.000001 -0.000000 -0.000000 -0.000001 0.000001 18.001792 1.230522 2.048993 5.972219 0.290874 -0.177542 5.977170 0.093764 -0.139033 -0.305498 -3.562699 0.496046 -0.305521 -3.562712 0.496049 -0.000002 0.000001 -0.000000 -0.305497 -3.562697 0.496048 -0.305518 -3.562719 0.496051 0.000002 -0.000000 0.000000 -0.000002 0.000001 -0.000001 6.052551 18.224360 6.073823 64.024424 -41.059173 -21.415877 52.698266 -32.631280 43.345531 9.420161 -35.509525 29.336154 -9.331553 3.471383 -7.771930 -3.526427 5.992585 -11.731731 0.000005 -0.000001 -0.000004 2.950635 -12.213421 7.303423 -0.001892 -0.013096 -14.886840 0.000001 0.000002 0.000000 -0.428359 -3.917214 -6.247932 -0.001113 -0.009776 -15.259826 0.000003 -0.000004 -0.000004 3.582744 12.303599 -16.370775 -0.016409 -0.033071 -52.623513 -0.000000 0.000001 0.000001 0.000694 20.812473 -16.406956 -0.017058 -0.032017 -51.783854 0.000000 -0.000003 -0.000001 -0.000002 -0.000000 -0.000000 -0.000002 -0.000000 -0.000000 -0.000001 -0.000001 0.000000 0.000002 -0.000001 0.000000 0.000002 -0.000001 0.000000 0.000002 -0.000001 0.000000 0.000003 -0.000000 0.000000 0.740445 6.115178 2.970500 -47.780151 50.793105 30.000271 1.938111 14.690431 3.720617 0.157464 2.028542 -35.871208 -4.453593 -7.293467 20.381122 0.000567 -8.684428 0.000691 -0.000000 -0.000001 0.000001 -0.000515 -0.006689 -8.932486 -0.000525 0.007235 6.265798 -0.000000 -0.000000 -0.000000 -0.000041 0.002643 3.005844 -0.000332 0.004843 6.344401 0.000001 0.000001 -0.000002 2.546350 -5.987554 23.063913 -0.002733 0.015395 21.773006 0.000002 -0.000001 -0.000003 8.673209 -16.457455 33.264534 -0.008761 0.026310 37.071535 0.000001 -0.000000 0.000000 0.000000 0.000001 -0.000000 0.000000 0.000001 -0.000000 0.000000 0.000001 -0.000002 0.000001 0.000002 -0.000001 0.000001 0.000002 -0.000001 0.000001 0.000002 -0.000001 0.000001 0.000002 0.000001 0.000001 0.000001 -0.000000 0.000001 0.000001 -0.000000 0.000001 0.000001 -0.000000 0.000001 0.000001 -0.000000 0.000001 0.000001 -0.000000 0.000001 0.000001 -0.000000 0.000001 0.000001 -0.000000 -0.000000 -0.000001 -0.000000 -0.000001 0.000000 -0.000000 
